<?xml version="1.0" encoding="utf-8"?>
<svg viewBox="0.3 0.234 43.492 39" width="43.492" height="39" xmlns="http://www.w3.org/2000/svg">
  <path d="M 43.792 0.876 L 43.792 15.682 L 0.3 33.177 L 43.792 0.876 Z" fill="#00C9FF"/>
  <path d="M 35.639 0.234 L 35.639 25.775 C 35.639 29.345 34.207 32.768 31.658 35.292 C 29.109 37.816 25.652 39.234 22.047 39.234 C 18.442 39.234 14.985 37.816 12.436 35.292 C 9.887 32.768 8.455 29.345 8.455 25.775 L 8.455 15.013 L 16.609 10.569 L 16.609 25.775 C 16.532 26.439 16.598 27.111 16.803 27.748 C 17.007 28.384 17.345 28.971 17.794 29.469 C 18.243 29.967 18.793 30.366 19.409 30.639 C 20.025 30.912 20.692 31.053 21.366 31.053 C 22.041 31.053 22.708 30.912 23.323 30.639 C 23.939 30.366 24.489 29.967 24.938 29.469 C 25.388 28.971 25.725 28.384 25.93 27.748 C 26.134 27.111 26.2 26.439 26.124 25.775 L 26.124 5.388 L 35.639 0.234 Z" fill="#0D67FE"/>
</svg>